{"glyphs":{":":{"x_min":0,"x_max":289,"ha":289,"o":"m 112 420 l 112 509 l 178 509 l 178 420 z m 112 0 l 112 89 l 178 89 l 178 0 z"},"$":{"x_min":0,"x_max":532,"ha":532,"o":"m 292 35 q 365 40 403 74 q 442 109 442 170 q 442 225 413 257 q 384 290 319 306 l 292 313 z m 246 390 l 246 644 q 179 640 142 607 q 106 574 106 515 q 106 468 131 441 q 156 414 219 397 z m 29 205 l 90 205 q 92 128 131 86 q 170 43 246 35 l 246 324 l 201 337 q 118 361 82 402 q 46 442 46 509 q 46 595 98 645 q 150 694 246 699 l 246 759 l 292 759 l 292 699 q 379 696 429 649 q 479 602 480 521 l 421 521 q 418 578 385 610 q 352 642 292 644 l 292 377 l 317 371 q 416 345 460 299 q 504 253 504 177 q 504 89 448 37 q 392 -16 292 -20 l 292 -98 l 246 -98 l 246 -20 q 139 -11 84 44 q 29 100 29 200 z"},"?":{"x_min":0,"x_max":491,"ha":491,"o":"m 206 176 l 206 237 q 206 278 219 308 q 232 338 275 381 q 287 393 309 415 q 389 491 389 550 q 389 611 352 646 q 315 681 249 681 q 172 681 133 640 q 94 599 92 516 l 27 516 q 30 625 87 681 q 145 738 251 738 q 346 738 402 688 q 458 639 458 555 q 458 509 441 473 q 423 437 385 401 q 376 393 359 377 q 265 292 265 229 l 265 176 z m 203 0 l 203 89 l 269 89 l 269 0 z"},"<":{"x_min":0,"x_max":833,"ha":833,"o":"m 704 505 l 194 298 l 704 91 l 704 48 l 129 283 l 129 313 l 704 549 z"},"'":{"x_min":0,"x_max":139,"ha":139,"o":"m 91 700 l 91 430 l 49 430 l 49 700 z"},"=":{"x_min":0,"x_max":833,"ha":833,"o":"m 709 229 l 709 189 l 124 189 l 124 229 z m 709 406 l 709 367 l 124 367 l 124 406 z"},"a":{"x_min":0,"x_max":536,"ha":536,"o":"m 401 272 q 377 263 340 258 q 302 252 219 248 q 162 233 132 205 q 103 177 103 138 q 103 94 135 67 q 166 41 220 41 q 303 41 352 84 q 401 126 401 200 z m 405 75 q 364 31 316 9 q 268 -13 213 -13 q 134 -13 88 28 q 41 69 41 137 q 41 182 62 215 q 83 248 124 267 q 170 288 279 296 q 300 298 311 299 q 317 300 328 302 q 402 317 402 366 q 402 427 372 453 q 342 479 273 479 q 203 479 166 450 q 129 421 126 364 l 67 364 q 69 442 124 487 q 179 532 273 532 q 366 532 415 492 q 463 452 463 375 l 463 92 q 463 60 471 52 q 479 44 500 44 q 507 44 512 44 q 517 44 522 45 l 522 0 q 511 -2 500 -4 q 488 -5 479 -5 q 442 -5 423 13 q 405 31 405 67 z"},"L":{"x_min":0,"x_max":520,"ha":520,"o":"m 80 0 l 80 719 l 148 719 l 148 59 l 515 59 l 515 0 z"},"3":{"x_min":0,"x_max":532,"ha":532,"o":"m 35 200 l 103 200 q 104 121 145 78 q 185 35 258 35 q 336 35 377 75 q 419 116 419 191 q 419 264 376 300 q 333 335 243 335 q 230 335 224 335 q 218 334 213 334 l 213 386 q 218 386 226 385 q 234 385 238 385 q 318 385 359 418 q 400 452 400 518 q 400 575 363 610 q 327 645 266 645 q 197 645 159 605 q 122 566 119 491 l 57 491 q 61 589 116 644 q 172 699 267 699 q 358 699 411 650 q 465 601 465 518 q 465 465 440 427 q 416 388 368 365 q 426 348 456 302 q 487 257 487 189 q 487 93 426 36 q 366 -20 262 -20 q 156 -20 96 38 q 35 96 35 198 z"},";":{"x_min":0,"x_max":289,"ha":289,"o":"m 111 420 l 111 509 l 178 509 l 178 420 z m 111 -139 l 111 -101 q 127 -89 135 -74 q 142 -59 142 -35 l 142 0 l 111 0 l 111 89 l 178 89 l 178 -31 q 178 -75 163 -100 q 147 -125 111 -139 z"},"J":{"x_min":0,"x_max":481,"ha":481,"o":"m 22 221 l 88 221 l 88 175 q 88 106 118 73 q 147 39 209 39 q 279 39 309 74 q 339 108 339 190 l 339 719 l 405 719 l 405 175 q 405 81 354 30 q 303 -20 207 -20 q 115 -20 69 28 q 22 75 22 169 z"},"V":{"x_min":0,"x_max":568,"ha":568,"o":"m 249 0 l 0 719 l 68 719 l 285 84 l 502 719 l 569 719 l 320 0 z"},"\"":{"x_min":0,"x_max":269,"ha":269,"o":"m 220 700 l 220 430 l 178 430 l 178 700 z m 91 700 l 91 430 l 49 430 l 49 700 z"},"7":{"x_min":0,"x_max":532,"ha":532,"o":"m 150 0 q 179 175 248 330 q 317 485 425 618 l 59 618 l 59 679 l 494 679 l 494 618 q 383 483 315 331 q 247 178 220 0 z"},"S":{"x_min":0,"x_max":606,"ha":606,"o":"m 46 218 l 112 218 q 113 133 166 86 q 218 39 314 39 q 398 39 446 77 q 494 115 494 181 q 494 243 460 275 q 427 307 326 333 l 258 350 q 147 378 105 422 q 63 466 63 545 q 63 632 127 685 q 191 738 298 738 q 411 738 475 680 q 539 623 540 519 l 473 519 q 472 596 425 637 q 379 679 295 679 q 216 679 172 644 q 129 608 129 543 q 129 494 157 465 q 186 437 251 420 l 335 399 q 459 368 510 320 q 560 272 560 188 q 560 91 494 36 q 428 -20 313 -20 q 185 -20 115 40 q 46 101 46 213 z"},"}":{"x_min":0,"x_max":500,"ha":500,"o":"m 266 537 l 266 420 q 266 343 294 311 q 323 280 392 280 q 396 280 403 280 q 410 281 414 281 l 414 237 q 410 237 403 237 q 396 238 392 238 q 323 238 294 207 q 266 175 266 98 l 266 -19 q 266 -129 233 -166 q 199 -202 107 -202 l 86 -202 l 86 -159 l 105 -159 q 170 -159 193 -135 q 216 -110 216 -31 l 216 87 q 216 172 237 208 q 258 243 312 259 q 258 274 237 310 q 216 346 216 431 l 216 549 q 216 628 193 653 q 170 678 104 678 l 86 678 l 86 721 l 107 721 q 199 721 233 685 q 266 648 266 537 z"},"Z":{"x_min":0,"x_max":569,"ha":569,"o":"m 17 0 l 17 61 l 462 660 l 51 660 l 51 719 l 544 719 l 544 662 l 96 60 l 551 60 l 551 0 z"},"x":{"x_min":0,"x_max":446,"ha":446,"o":"m 0 0 l 182 266 l 8 519 l 83 519 l 219 312 l 353 519 l 426 519 l 256 267 l 445 0 l 369 0 l 220 220 l 72 0 z"},")":{"x_min":0,"x_max":316,"ha":316,"o":"m 15 719 l 63 719 q 142 623 182 507 q 222 391 222 258 q 222 125 182 9 q 142 -107 63 -203 l 15 -203 q 89 -101 124 12 q 159 125 159 258 q 159 393 124 505 q 89 617 15 719 z"},"&":{"x_min":0,"x_max":660,"ha":660,"o":"m 259 374 q 189 340 156 296 q 122 251 122 195 q 122 125 164 82 q 206 39 274 39 q 335 39 381 62 q 427 85 462 133 z m 283 444 q 341 473 368 504 q 394 535 394 574 q 394 615 369 638 q 344 661 301 661 q 258 661 234 639 q 211 616 211 575 q 211 547 228 517 q 245 486 283 444 z m 574 0 l 502 86 q 462 34 405 7 q 347 -20 273 -20 q 176 -20 115 38 q 54 97 54 188 q 54 264 97 321 q 140 378 224 416 q 184 461 165 499 q 147 538 147 576 q 147 637 191 678 q 235 719 302 719 q 373 719 414 680 q 456 641 456 575 q 456 522 424 482 q 392 441 318 401 l 496 191 q 508 218 514 251 q 520 283 520 322 l 582 322 q 581 268 570 223 q 559 178 537 140 l 656 0 z"},"_":{"x_min":0,"x_max":500,"ha":500,"o":"m 500 -197 l 500 -236 l 0 -236 l 0 -197 z"},"v":{"x_min":0,"x_max":463,"ha":463,"o":"m 198 0 l 3 519 l 68 519 l 234 73 l 397 519 l 459 519 l 265 0 z"},"O":{"x_min":0,"x_max":757,"ha":757,"o":"m 117 359 q 117 211 188 125 q 258 39 378 39 q 499 39 569 125 q 640 211 640 359 q 640 507 569 594 q 499 680 378 680 q 259 680 188 593 q 117 506 117 359 z m 49 359 q 49 534 138 636 q 227 738 378 738 q 530 738 619 636 q 708 534 708 359 q 708 184 619 82 q 530 -20 378 -20 q 227 -20 138 82 q 49 184 49 359 z"},"(":{"x_min":0,"x_max":316,"ha":316,"o":"m 301 719 q 227 617 191 504 q 156 390 156 258 q 156 125 191 12 q 227 -100 301 -203 l 253 -203 q 174 -107 134 9 q 94 125 94 258 q 94 391 134 507 q 174 623 253 719 z"},"C":{"x_min":0,"x_max":696,"ha":696,"o":"m 584 235 l 649 235 q 641 115 565 48 q 489 -20 362 -20 q 217 -20 133 82 q 49 184 49 361 q 49 537 134 637 q 218 738 364 738 q 486 738 561 676 q 637 613 642 509 l 577 509 q 569 588 512 634 q 455 679 364 679 q 247 679 182 596 q 117 513 117 362 q 117 210 183 124 q 250 38 366 38 q 461 38 519 90 q 577 143 584 235 z"},"W":{"x_min":0,"x_max":859,"ha":859,"o":"m 192 0 l 6 719 l 71 719 l 231 99 l 390 719 l 471 719 l 628 99 l 790 719 l 853 719 l 664 0 l 592 0 l 429 639 l 263 0 z"},"A":{"x_min":0,"x_max":616,"ha":616,"o":"m 168 279 l 447 279 l 307 649 z m -5 0 l 268 719 l 347 719 l 620 0 l 551 0 l 469 221 l 147 221 l 64 0 z"},"f":{"x_min":0,"x_max":266,"ha":266,"o":"m 96 0 l 96 470 l 20 470 l 20 519 l 96 519 l 96 614 q 96 672 125 699 q 155 726 219 726 q 226 726 234 725 q 241 725 250 723 l 250 669 q 248 669 244 669 q 225 671 217 671 q 183 671 169 657 q 156 643 156 608 l 156 519 l 250 519 l 250 470 l 156 470 l 156 0 z"},"Q":{"x_min":0,"x_max":757,"ha":757,"o":"m 656 -53 l 553 29 q 521 4 478 -8 q 434 -20 378 -20 q 227 -20 138 82 q 49 184 49 359 q 49 534 138 636 q 227 738 378 738 q 530 738 619 636 q 708 534 708 359 q 708 261 682 189 q 655 117 601 67 l 692 -7 z m 503 70 l 418 139 l 454 185 l 553 106 q 596 146 618 210 q 640 273 640 359 q 640 507 569 594 q 499 680 378 680 q 259 680 188 593 q 117 506 117 359 q 117 209 188 124 q 260 39 384 39 q 419 39 448 47 q 478 54 503 70 z"},"w":{"x_min":0,"x_max":692,"ha":692,"o":"m 163 0 l 0 519 l 61 519 l 195 85 l 314 519 l 381 519 l 498 85 l 631 519 l 692 519 l 529 0 l 465 0 l 345 434 l 226 0 z"},"-":{"x_min":0,"x_max":327,"ha":327,"o":"m 39 231 l 39 294 l 281 294 l 281 231 z"},"E":{"x_min":0,"x_max":605,"ha":605,"o":"m 80 0 l 80 719 l 551 719 l 551 660 l 146 660 l 146 398 l 516 398 l 516 341 l 146 341 l 146 59 l 563 59 l 563 0 z"},"s":{"x_min":0,"x_max":491,"ha":491,"o":"m 45 162 l 105 162 q 107 108 146 74 q 184 41 244 41 q 309 41 346 67 q 384 92 384 136 q 384 199 246 232 l 243 233 q 132 260 94 292 q 56 324 56 382 q 56 449 106 490 q 155 532 235 532 q 322 532 374 489 q 426 445 431 367 l 370 367 q 366 420 331 449 q 295 479 234 479 q 181 479 149 455 q 117 430 117 390 q 117 321 259 288 q 277 283 287 281 q 375 259 410 227 q 445 194 445 135 q 445 69 390 27 q 336 -14 247 -14 q 157 -14 102 34 q 47 82 45 162 z"},">":{"x_min":0,"x_max":833,"ha":833,"o":"m 704 313 l 704 283 l 129 48 l 129 91 l 639 298 l 129 505 l 129 549 z"},"l":{"x_min":0,"x_max":206,"ha":206,"o":"m 73 0 l 73 719 l 133 719 l 133 0 z"},"8":{"x_min":0,"x_max":532,"ha":532,"o":"m 108 189 q 108 122 152 79 q 196 36 266 36 q 337 36 380 79 q 424 123 424 194 q 424 262 382 301 q 339 341 266 341 q 191 341 149 301 q 108 261 108 189 z m 132 517 q 132 460 167 427 q 203 394 266 394 q 329 394 365 427 q 401 460 401 517 q 401 576 365 611 q 328 646 266 646 q 204 646 168 611 q 132 577 132 517 z m 161 370 q 113 396 89 432 q 66 469 66 519 q 66 601 120 650 q 174 699 266 699 q 358 699 412 650 q 466 601 466 519 q 466 469 443 432 q 419 396 371 370 q 428 348 460 301 q 492 253 492 191 q 492 94 431 37 q 371 -20 266 -20 q 162 -20 101 37 q 40 94 40 191 q 40 253 72 301 q 104 348 161 370 z"},"\\":{"x_min":0,"x_max":292,"ha":292,"o":"m 256 -84 l -13 738 l 36 738 l 304 -84 z"},"e":{"x_min":0,"x_max":530,"ha":530,"o":"m 102 248 l 102 245 q 102 150 148 94 q 194 37 271 37 q 332 37 373 70 q 414 103 423 160 l 483 160 q 473 81 415 33 q 356 -14 267 -14 q 161 -14 101 58 q 41 129 41 257 q 41 387 101 459 q 162 532 269 532 q 374 532 432 463 q 490 393 490 268 l 490 248 z m 103 296 l 428 296 q 424 382 382 431 q 339 480 268 480 q 197 480 152 430 q 107 380 103 296 z"},"b":{"x_min":0,"x_max":577,"ha":577,"o":"m 124 259 q 124 155 171 97 q 217 39 300 39 q 384 39 430 96 q 475 153 475 259 q 475 364 429 422 q 384 479 300 479 q 215 479 170 422 q 124 365 124 259 z m 67 0 l 67 719 l 127 719 l 127 427 q 156 479 202 506 q 247 532 309 532 q 416 532 477 459 q 539 386 539 259 q 539 132 476 59 q 414 -14 305 -14 q 245 -14 199 12 q 154 39 127 90 l 127 0 z"},"%":{"x_min":0,"x_max":810,"ha":810,"o":"m 500 166 q 500 121 531 90 q 563 58 608 58 q 653 58 684 89 q 715 121 715 166 q 715 211 684 242 q 653 273 608 273 q 562 273 531 242 q 500 211 500 166 z m 442 166 q 442 236 490 283 q 538 331 608 331 q 678 331 725 283 q 773 236 773 166 q 773 96 725 48 q 677 0 608 0 q 539 0 490 48 q 442 97 442 166 z m 155 -20 l 604 699 l 655 699 l 206 -20 z m 95 513 q 95 468 126 437 q 157 406 202 406 q 247 406 278 437 q 309 468 309 513 q 309 559 278 590 q 247 621 202 621 q 157 621 126 590 q 95 559 95 513 z m 37 514 q 37 584 85 632 q 132 679 202 679 q 272 679 320 631 q 368 583 368 514 q 368 444 320 396 q 271 348 202 348 q 133 348 85 396 q 37 444 37 514 z"},"m":{"x_min":0,"x_max":834,"ha":834,"o":"m 67 0 l 67 519 l 123 519 l 123 433 q 149 481 192 507 q 234 532 288 532 q 346 532 385 506 q 423 479 436 430 q 462 480 505 506 q 547 532 603 532 q 688 532 729 490 q 771 448 771 362 l 771 0 l 710 0 l 710 357 q 710 422 685 451 q 659 479 601 479 q 532 479 491 437 q 449 394 449 325 l 449 0 l 389 0 l 389 351 q 389 416 362 447 q 335 478 280 478 q 211 478 169 435 q 127 391 127 321 l 127 0 z"},"#":{"x_min":0,"x_max":769,"ha":769,"o":"m 478 423 l 346 423 l 298 285 l 429 285 z m 447 710 l 362 467 l 494 467 l 580 710 l 634 710 l 549 467 l 706 467 l 691 423 l 533 423 l 484 285 l 654 285 l 639 241 l 468 241 l 383 0 l 328 0 l 414 241 l 282 241 l 195 0 l 141 0 l 226 241 l 63 241 l 78 285 l 242 285 l 291 423 l 115 423 l 129 467 l 307 467 l 393 710 z"},",":{"x_min":0,"x_max":266,"ha":266,"o":"m 100 -139 l 100 -101 q 117 -89 124 -74 q 131 -59 131 -35 l 131 0 l 100 0 l 100 89 l 166 89 l 166 -31 q 166 -75 151 -100 q 136 -125 100 -139 z"},"n":{"x_min":0,"x_max":539,"ha":539,"o":"m 67 0 l 67 519 l 125 519 l 125 436 q 154 484 197 508 q 240 532 297 532 q 351 532 391 513 q 432 494 453 459 q 464 441 469 415 q 474 390 474 331 l 474 316 l 474 0 l 412 0 l 412 322 q 412 413 384 446 q 356 478 285 478 q 212 478 170 432 q 128 386 128 306 l 128 0 z"},"h":{"x_min":0,"x_max":541,"ha":541,"o":"m 67 0 l 67 719 l 128 719 l 128 438 q 157 484 200 508 q 243 532 299 532 q 351 532 392 513 q 433 493 454 459 q 465 440 470 414 q 475 387 475 316 l 475 0 l 414 0 l 414 315 q 414 412 386 445 q 358 478 287 478 q 214 478 171 431 q 128 385 128 306 l 128 0 z"},"z":{"x_min":0,"x_max":464,"ha":464,"o":"m 20 0 l 20 50 l 356 469 l 37 469 l 37 519 l 428 519 l 428 466 l 97 53 l 443 53 l 443 0 z"},"B":{"x_min":0,"x_max":640,"ha":640,"o":"m 146 59 l 340 59 q 447 59 489 90 q 531 122 531 197 q 531 270 484 307 q 437 344 345 344 l 146 344 z m 306 660 l 146 660 l 146 400 l 300 400 q 411 400 455 430 q 498 459 498 531 q 498 602 456 631 q 415 660 306 660 z m 80 0 l 80 719 l 318 719 q 380 719 416 712 q 453 706 479 690 q 520 667 543 626 q 566 585 566 535 q 566 481 538 441 q 510 400 459 380 q 524 366 562 316 q 599 267 599 194 q 599 131 569 84 q 539 37 486 16 q 464 7 420 4 q 376 0 279 0 z"},"K":{"x_min":0,"x_max":639,"ha":639,"o":"m 80 0 l 80 719 l 146 719 l 146 338 l 517 719 l 602 719 l 310 421 l 636 0 l 554 0 l 266 377 l 146 254 l 146 0 z"},"R":{"x_min":0,"x_max":647,"ha":647,"o":"m 146 381 l 337 381 q 438 381 482 415 q 526 449 526 526 q 526 561 512 589 q 498 618 472 635 q 452 648 424 654 q 396 660 333 660 l 305 660 l 146 660 z m 80 0 l 80 719 l 320 719 q 403 719 441 712 q 478 706 506 690 q 548 666 571 624 q 594 582 594 528 q 594 461 564 416 q 535 371 478 351 q 522 336 541 306 q 560 276 568 184 l 577 76 q 579 51 585 34 q 591 18 600 10 l 600 0 l 527 0 q 521 11 517 29 q 513 47 511 74 l 503 169 q 496 268 468 295 q 440 322 356 322 l 146 322 l 146 0 z"},"T":{"x_min":0,"x_max":532,"ha":532,"o":"m 232 0 l 232 660 l 9 660 l 9 719 l 523 719 l 523 660 l 300 660 l 300 0 z"},"P":{"x_min":0,"x_max":604,"ha":604,"o":"m 146 372 l 300 372 q 406 372 453 406 q 499 441 499 518 q 499 591 458 626 q 416 660 328 660 l 146 660 z m 80 0 l 80 719 l 331 719 q 449 719 508 668 q 567 618 567 517 q 567 413 501 363 q 435 312 299 312 l 146 312 l 146 0 z"},"|":{"x_min":0,"x_max":500,"ha":500,"o":"m 272 764 l 272 -236 l 228 -236 l 228 764 z"},"t":{"x_min":0,"x_max":271,"ha":271,"o":"m 146 668 l 146 519 l 242 519 l 242 470 l 146 470 l 146 92 q 146 59 154 48 q 163 37 184 37 q 193 37 205 39 q 217 41 242 46 l 242 -2 q 220 -8 202 -10 q 184 -13 168 -13 q 123 -13 104 10 q 86 32 86 92 l 86 470 l 15 470 l 15 519 l 86 519 l 86 668 z"},"M":{"x_min":0,"x_max":815,"ha":815,"o":"m 79 0 l 79 719 l 172 719 l 409 86 l 642 719 l 735 719 l 735 0 l 671 0 l 671 627 l 440 0 l 379 0 l 144 627 l 144 0 z"},"g":{"x_min":0,"x_max":579,"ha":579,"o":"m 106 259 q 106 156 153 97 q 199 38 281 38 q 364 38 411 96 q 457 154 457 259 q 457 364 411 421 q 365 479 281 479 q 197 479 151 422 q 106 365 106 259 z m 512 519 l 512 27 q 512 -92 450 -152 q 388 -213 266 -213 q 175 -213 119 -172 q 63 -131 58 -61 l 120 -61 q 125 -108 162 -134 q 200 -159 265 -159 q 359 -159 406 -113 q 453 -66 453 25 l 453 89 q 421 37 376 11 q 331 -14 272 -14 q 165 -14 104 59 q 42 132 42 259 q 42 385 104 458 q 167 532 272 532 q 332 532 377 506 q 422 480 452 429 l 452 519 z"},"j":{"x_min":0,"x_max":218,"ha":218,"o":"m 91 629 l 91 719 l 151 719 l 151 629 z m 10 -209 l 10 -157 q 15 -158 20 -158 q 24 -158 33 -158 q 66 -158 78 -144 q 91 -130 91 -94 l 91 519 l 151 519 l 151 -101 q 151 -160 126 -187 q 102 -213 47 -213 q 39 -213 18 -210 q 13 -209 10 -209 z"},"i":{"x_min":0,"x_max":206,"ha":206,"o":"m 73 629 l 73 719 l 133 719 l 133 629 z m 73 0 l 73 519 l 133 519 l 133 0 z"},"y":{"x_min":0,"x_max":466,"ha":466,"o":"m 228 -101 q 206 -162 174 -187 q 142 -213 89 -213 q 76 -213 66 -212 q 57 -210 47 -208 l 47 -153 q 63 -156 73 -157 q 83 -158 88 -158 q 121 -158 139 -141 q 158 -124 178 -71 l 202 -6 l 0 519 l 64 519 l 232 76 l 396 519 l 458 519 z"},"@":{"x_min":0,"x_max":1000,"ha":1000,"o":"m 636 404 l 666 467 l 705 467 l 638 197 q 633 179 631 165 q 628 151 628 144 q 628 123 643 111 q 658 99 685 99 q 708 99 734 109 q 759 118 784 136 q 833 172 863 237 q 893 302 893 375 q 893 508 796 590 q 698 671 539 671 q 457 671 387 647 q 318 624 261 577 q 186 515 148 432 q 110 350 110 249 q 110 89 218 -6 q 326 -101 507 -101 q 585 -101 665 -76 q 745 -52 811 -7 l 825 -29 q 754 -83 675 -109 q 595 -136 509 -136 q 417 -136 341 -114 q 265 -91 206 -46 q 132 10 95 85 q 59 159 59 255 q 59 334 84 405 q 108 476 156 534 q 226 620 324 664 q 423 708 544 708 q 622 708 693 687 q 763 665 814 626 q 876 578 909 515 q 941 453 941 380 q 941 297 910 229 q 879 162 822 116 q 789 90 751 76 q 712 62 673 62 q 626 62 603 80 q 579 98 579 133 q 579 139 581 149 q 581 151 581 152 q 557 109 520 85 q 483 62 439 62 q 364 62 325 103 q 286 143 286 221 q 286 333 352 410 q 417 487 511 487 q 558 487 589 466 q 621 445 636 404 z m 595 228 l 626 352 q 615 400 586 426 q 557 451 512 451 q 438 451 387 384 q 337 316 337 218 q 337 162 365 130 q 393 98 443 98 q 497 98 539 134 q 580 169 595 228 z"},".":{"x_min":0,"x_max":266,"ha":266,"o":"m 100 0 l 100 89 l 166 89 l 166 0 z"},"p":{"x_min":0,"x_max":580,"ha":580,"o":"m 127 259 q 127 156 173 97 q 220 39 302 39 q 387 39 432 96 q 478 153 478 259 q 478 364 432 422 q 386 479 302 479 q 218 479 172 422 q 127 365 127 259 z m 69 -209 l 69 519 l 130 519 l 130 426 q 159 480 204 506 q 248 532 311 532 q 418 532 479 459 q 541 386 541 259 q 541 131 479 59 q 417 -14 308 -14 q 248 -14 204 12 q 160 38 130 90 l 130 -209 z"},"X":{"x_min":0,"x_max":587,"ha":587,"o":"m 11 0 l 252 370 l 19 719 l 97 719 l 290 425 l 481 719 l 558 719 l 327 368 l 576 0 l 497 0 l 290 312 l 89 0 z"},"*":{"x_min":0,"x_max":500,"ha":500,"o":"m 249 501 l 161 372 l 115 405 l 213 527 l 67 566 l 84 622 l 226 570 l 226 719 l 272 719 l 272 570 l 413 620 l 433 568 l 285 527 l 385 405 l 338 371 z"},"Y":{"x_min":0,"x_max":560,"ha":560,"o":"m 247 0 l 247 316 l -7 719 l 69 719 l 280 379 l 491 719 l 567 719 l 313 316 l 313 0 z"},"c":{"x_min":0,"x_max":516,"ha":516,"o":"m 424 179 l 484 179 q 476 90 418 38 q 360 -13 268 -13 q 163 -13 102 59 q 41 131 41 256 q 41 385 103 458 q 165 532 272 532 q 359 532 416 483 q 472 434 477 354 l 419 354 q 412 411 371 445 q 331 479 272 479 q 194 479 149 420 q 103 362 103 261 q 103 158 149 98 q 195 38 273 38 q 333 38 374 76 q 415 113 424 179 z"},"!":{"x_min":0,"x_max":312,"ha":312,"o":"m 137 176 l 123 458 l 123 719 l 189 719 l 189 458 l 176 176 z m 123 0 l 123 89 l 189 89 l 189 0 z"},"/":{"x_min":0,"x_max":292,"ha":292,"o":"m 256 738 l 304 738 l 36 -84 l -13 -84 z"},"[":{"x_min":0,"x_max":330,"ha":330,"o":"m 302 -200 l 120 -200 l 120 719 l 302 719 l 302 669 l 181 669 l 181 -149 l 302 -149 z"},"6":{"x_min":0,"x_max":532,"ha":532,"o":"m 122 216 q 122 133 164 84 q 205 35 275 35 q 350 35 389 79 q 428 123 428 206 q 428 293 389 341 q 349 389 277 389 q 209 389 166 340 q 122 291 122 216 z m 106 334 q 132 387 178 415 q 224 442 286 442 q 382 442 439 379 q 496 316 496 209 q 496 104 438 42 q 379 -20 280 -20 q 163 -20 102 64 q 40 147 40 306 q 40 498 106 599 q 171 700 295 700 q 376 700 428 652 q 480 604 488 522 l 427 522 q 419 581 384 613 q 349 645 291 645 q 204 645 157 566 q 110 487 106 334 z"},"r":{"x_min":0,"x_max":307,"ha":307,"o":"m 67 0 l 67 519 l 125 519 l 125 428 q 147 480 187 506 q 227 532 285 532 l 292 532 l 292 469 l 284 469 q 207 469 168 423 q 129 377 129 286 l 129 0 z"},"2":{"x_min":0,"x_max":532,"ha":532,"o":"m 34 0 q 34 3 34 10 q 33 18 33 21 q 33 96 73 155 q 114 214 205 271 q 228 285 270 310 q 355 360 380 386 q 402 411 412 436 q 422 461 422 495 q 422 564 383 603 q 344 642 275 642 q 198 642 157 597 q 116 552 115 467 l 50 467 q 53 579 112 639 q 171 699 277 699 q 375 699 432 645 q 489 590 489 497 q 489 453 475 419 q 462 384 433 353 q 400 317 298 260 q 266 242 249 232 q 172 187 138 146 q 103 105 99 56 l 485 56 l 485 0 z"},"{":{"x_min":0,"x_max":500,"ha":500,"o":"m 414 678 l 396 678 q 330 678 307 653 q 284 628 284 549 l 284 431 q 284 346 263 310 q 242 274 189 259 q 242 243 263 208 q 284 173 284 87 l 284 -31 q 284 -110 307 -135 q 330 -159 395 -159 l 414 -159 l 414 -202 l 393 -202 q 301 -202 267 -166 q 234 -129 234 -19 l 234 98 q 234 175 206 207 q 177 238 108 238 q 104 238 97 237 q 90 237 86 237 l 86 281 q 91 280 96 280 q 101 280 110 280 q 178 280 206 311 q 234 343 234 420 l 234 537 q 234 648 267 685 q 301 721 393 721 l 414 721 z"},"9":{"x_min":0,"x_max":532,"ha":532,"o":"m 102 473 q 102 386 141 338 q 181 291 253 291 q 321 291 365 339 q 408 388 408 463 q 408 546 367 595 q 325 644 255 644 q 180 644 141 600 q 102 557 102 473 z m 103 157 q 112 97 147 66 q 182 35 240 35 q 327 35 373 113 q 419 190 424 345 q 398 292 352 264 q 306 237 244 237 q 148 237 91 300 q 34 363 34 470 q 34 575 92 637 q 150 699 250 699 q 367 699 429 616 q 490 533 490 374 q 490 182 425 81 q 359 -20 235 -20 q 152 -20 101 27 q 50 73 42 157 z"}," ":{"x_min":0,"x_max":266,"ha":266,"o":""},"I":{"x_min":0,"x_max":237,"ha":237,"o":"m 84 0 l 84 719 l 152 719 l 152 0 z"},"H":{"x_min":0,"x_max":704,"ha":704,"o":"m 80 0 l 80 719 l 146 719 l 146 407 l 557 407 l 557 719 l 624 719 l 624 0 l 557 0 l 557 348 l 146 348 l 146 0 z"},"4":{"x_min":0,"x_max":532,"ha":532,"o":"m 338 228 l 338 596 l 97 228 z m 338 0 l 338 173 l 37 173 l 37 229 l 333 679 l 403 679 l 403 228 l 496 228 l 496 173 l 403 173 l 403 0 z"},"~":{"x_min":0,"x_max":833,"ha":833,"o":"m 747 316 q 695 280 648 262 q 602 244 558 244 q 510 244 428 274 q 420 277 417 278 q 412 280 401 284 q 320 313 276 313 q 235 313 190 295 q 146 276 87 235 l 87 280 q 138 316 185 333 q 232 351 276 351 q 325 351 408 321 q 414 319 417 318 q 421 316 431 313 q 513 283 558 283 q 599 283 644 302 q 688 320 747 361 z"},"D":{"x_min":0,"x_max":697,"ha":697,"o":"m 146 59 l 285 59 q 367 59 404 65 q 442 71 467 86 q 521 119 548 186 q 575 253 575 359 q 575 460 549 527 q 523 594 472 628 q 446 646 407 653 q 369 660 278 660 l 262 660 l 146 660 z m 249 719 l 298 719 q 387 719 431 710 q 476 701 508 680 q 574 638 609 556 q 644 475 644 361 q 644 238 606 155 q 568 71 493 31 q 462 14 417 7 q 371 0 278 0 l 80 0 l 80 719 z"},"^":{"x_min":0,"x_max":1000,"ha":1000,"o":"m 528 712 l 792 440 l 731 440 l 500 669 l 268 440 l 207 440 l 470 712 z"},"0":{"x_min":0,"x_max":532,"ha":532,"o":"m 104 340 q 104 187 144 111 q 184 36 266 36 q 348 36 387 111 q 427 186 427 340 q 427 494 387 568 q 348 643 266 643 q 184 643 144 568 q 104 493 104 340 z m 37 340 q 37 515 96 607 q 154 699 266 699 q 377 699 437 606 q 496 514 496 339 q 496 164 437 72 q 378 -20 266 -20 q 155 -20 96 72 q 37 165 37 340 z"},"F":{"x_min":0,"x_max":568,"ha":568,"o":"m 80 0 l 80 719 l 535 719 l 535 660 l 146 660 l 146 400 l 499 400 l 499 341 l 146 341 l 146 0 z"},"`":{"x_min":0,"x_max":500,"ha":500,"o":"m 266 586 l 135 757 l 209 757 l 311 586 z"},"k":{"x_min":0,"x_max":484,"ha":484,"o":"m 67 0 l 67 719 l 127 719 l 127 267 l 386 519 l 463 519 l 267 329 l 487 0 l 418 0 l 225 289 l 127 195 l 127 0 z"},"u":{"x_min":0,"x_max":541,"ha":541,"o":"m 473 519 l 473 0 l 415 0 l 415 83 q 385 34 343 10 q 300 -14 241 -14 q 153 -14 109 32 q 65 78 65 170 l 65 519 l 125 519 l 125 184 q 125 106 154 74 q 184 41 252 41 q 327 41 370 87 q 413 132 413 212 l 413 519 z"},"]":{"x_min":0,"x_max":330,"ha":330,"o":"m 28 -200 l 28 -149 l 149 -149 l 149 669 l 28 669 l 28 719 l 210 719 l 210 -200 z"},"U":{"x_min":0,"x_max":697,"ha":697,"o":"m 75 719 l 141 719 l 141 266 q 141 146 190 93 q 239 39 348 39 q 457 39 507 93 q 556 146 556 266 l 556 719 l 622 719 l 622 257 q 622 120 553 50 q 484 -20 348 -20 q 212 -20 144 50 q 75 119 75 257 z"},"o":{"x_min":0,"x_max":558,"ha":558,"o":"m 103 259 q 103 154 149 97 q 195 39 279 39 q 363 39 409 96 q 455 153 455 259 q 455 364 409 422 q 363 479 279 479 q 195 479 149 421 q 103 364 103 259 z m 41 259 q 41 389 103 461 q 166 532 279 532 q 393 532 455 461 q 518 389 518 259 q 518 129 456 58 q 393 -13 279 -13 q 166 -13 103 58 q 41 129 41 259 z"},"N":{"x_min":0,"x_max":704,"ha":704,"o":"m 80 0 l 80 719 l 153 719 l 559 102 l 559 719 l 623 719 l 623 0 l 550 0 l 145 617 l 145 0 z"},"+":{"x_min":0,"x_max":833,"ha":833,"o":"m 436 596 l 436 318 l 709 318 l 709 278 l 436 278 l 436 0 l 397 0 l 397 278 l 124 278 l 124 318 l 397 318 l 397 596 z"},"G":{"x_min":0,"x_max":749,"ha":749,"o":"m 630 0 l 623 127 q 590 58 524 19 q 458 -20 372 -20 q 222 -20 136 82 q 50 184 50 361 q 50 536 138 637 q 226 738 376 738 q 501 738 580 678 q 658 618 674 510 l 606 510 q 591 589 530 635 q 469 680 377 680 q 252 680 185 597 q 117 515 117 362 q 117 214 185 127 q 253 41 369 41 q 488 41 554 111 q 620 181 620 307 l 620 310 l 383 310 l 383 369 l 683 369 l 683 0 z"},"q":{"x_min":0,"x_max":581,"ha":581,"o":"m 104 259 q 104 154 150 97 q 196 39 279 39 q 363 39 409 96 q 455 153 455 259 q 455 364 409 421 q 363 479 279 479 q 195 479 149 422 q 104 365 104 259 z m 510 519 l 510 -209 l 450 -209 l 450 93 q 421 40 376 13 q 331 -14 270 -14 q 164 -14 102 59 q 41 131 41 259 q 41 387 103 459 q 165 532 272 532 q 333 532 376 507 q 420 481 450 429 l 450 519 z"},"d":{"x_min":0,"x_max":581,"ha":581,"o":"m 106 259 q 106 154 152 97 q 198 39 281 39 q 366 39 411 96 q 457 153 457 259 q 457 364 411 422 q 365 479 281 479 q 197 479 151 422 q 106 365 106 259 z m 512 719 l 512 0 l 452 0 l 452 88 q 422 37 376 11 q 330 -14 269 -14 q 164 -14 103 59 q 42 132 42 259 q 42 385 104 459 q 167 532 273 532 q 334 532 379 506 q 424 480 452 429 l 452 719 z"},"1":{"x_min":0,"x_max":532,"ha":532,"o":"m 267 0 l 267 558 q 244 537 204 528 q 165 518 103 518 l 93 518 l 93 561 l 97 561 q 185 561 227 594 q 270 628 274 699 l 332 699 l 332 0 z"},"5":{"x_min":0,"x_max":532,"ha":532,"o":"m 38 180 l 103 180 q 106 113 148 75 q 191 37 262 37 q 336 37 378 83 q 420 128 420 210 q 420 294 377 343 q 333 391 258 391 q 210 391 174 373 q 137 355 115 322 l 60 322 l 113 679 l 455 679 l 455 624 l 160 624 l 126 399 q 151 421 187 433 q 223 444 269 444 q 368 444 427 381 q 487 318 487 213 q 487 105 426 43 q 365 -20 260 -20 q 162 -20 102 34 q 42 88 38 180 z"}}}
